<?xml version="1.0" encoding="utf-8"?>
<!-- Generator: Adobe Illustrator 26.0.3, SVG Export Plug-In . SVG Version: 6.00 Build 0)  -->
<svg version="1.1" id="Layer_1" xmlns="http://www.w3.org/2000/svg" xmlns:xlink="http://www.w3.org/1999/xlink" x="0px" y="0px"
	 viewBox="0 0 814.4 436.3" style="enable-background:new 0 0 814.4 436.3;" xml:space="preserve" >
<style type="text/css">
	.st0{enable-background:new    ;}
	.st1{fill:none;stroke:#FFDADA;stroke-miterlimit:10;}
</style>
<g class="st0">
	<path class="st1" d="M22,54c8.2-15.9,20-28.2,35.2-37C72.5,8.2,90.5,3.8,111.2,3.8c17.8,0,33.7,3.3,47.7,10
		c14,6.7,25.4,16.1,34.2,28.3c8.8,12.2,14.6,26.4,17.5,42.6h-67.9c-3.1-6.8-7.5-12-13.2-15.8c-5.7-3.8-12.2-5.7-19.6-5.7
		c-10.8,0-19.4,4.1-25.7,12.2c-6.3,8.1-9.4,19-9.4,32.8c0,13.7,3.1,24.7,9.4,32.8c6.3,8.1,14.8,12.2,25.7,12.2
		c7.3,0,13.9-1.9,19.6-5.7c5.7-3.8,10.1-9,13.2-15.8h67.9c-2.9,16.2-8.8,30.5-17.5,42.6c-8.8,12.2-20.2,21.6-34.2,28.3
		c-14,6.7-29.9,10-47.7,10c-20.7,0-38.7-4.4-53.9-13.2c-15.3-8.8-27-21.1-35.2-37c-8.2-15.9-12.3-33.9-12.3-54.2S13.8,69.8,22,54z"
		/>
	<path class="st1" d="M280.7,199.5c-16.1-9.1-29-21.7-38.4-37.7c-9.5-16-14.2-34.1-14.2-54.2c0-20.1,4.7-38.2,14.2-54.2
		c9.5-16,22.3-28.6,38.4-37.6c16.1-9,33.9-13.5,53.2-13.5c19.3,0,37,4.5,53.1,13.5c16,9,28.8,21.5,38.1,37.6
		c9.4,16,14.1,34.1,14.1,54.2c0,20.1-4.7,38.2-14.1,54.2c-9.4,16-22.1,28.6-38.3,37.7c-16.1,9.1-33.8,13.6-52.9,13.6
		C314.6,213.2,296.8,208.6,280.7,199.5z M363.5,140.8c7-8.2,10.4-19.3,10.4-33.2c0-14.1-3.5-25.3-10.4-33.5
		c-7-8.2-16.8-12.3-29.6-12.3c-13,0-22.9,4.1-29.9,12.3c-7,8.2-10.4,19.4-10.4,33.5c0,13.9,3.5,25,10.4,33.2
		c7,8.2,16.9,12.3,29.9,12.3C346.7,153.1,356.5,149,363.5,140.8z"/>
	<path class="st1" d="M659.3,211.1h-64.4l-68.2-103.2v103.2h-64.4V5.8h64.4l68.2,105V5.8h64.4V211.1z"/>
</g>
<g class="st0">
	<path class="st1" d="M176.7,225.8v51h-54.5v154.3H57.8V276.9H3.9v-51H176.7z"/>
	<path class="st1" d="M325.8,400.1h-68.4l-10.2,31h-67.6l75.1-205.3H329l74.8,205.3h-67.9L325.8,400.1z M310.1,351.7l-18.6-57.1
		L273,351.7H310.1z"/>
	<path class="st1" d="M579.5,225.8v51H525v154.3h-64.4V276.9h-53.9v-51H579.5z"/>
	<path class="st1" d="M643.8,419.5c-16.1-9.1-29-21.7-38.4-37.7c-9.5-16-14.2-34.1-14.2-54.2c0-20.1,4.7-38.2,14.2-54.2
		c9.5-16,22.3-28.6,38.4-37.6c16.1-9,33.9-13.5,53.2-13.5c19.3,0,37,4.5,53.1,13.5c16,9,28.8,21.5,38.1,37.6
		c9.4,16,14.1,34.1,14.1,54.2c0,20.1-4.7,38.2-14.1,54.2c-9.4,16-22.1,28.6-38.3,37.7c-16.1,9.1-33.8,13.6-52.9,13.6
		C677.7,433.2,659.9,428.6,643.8,419.5z M726.6,360.8c7-8.2,10.4-19.3,10.4-33.2c0-14.1-3.5-25.3-10.4-33.5
		c-7-8.2-16.8-12.3-29.6-12.3c-13,0-22.9,4.1-29.9,12.3c-7,8.2-10.4,19.4-10.4,33.5c0,13.9,3.5,25,10.4,33.2
		c7,8.2,16.9,12.3,29.9,12.3C709.8,373.1,719.6,369,726.6,360.8z"/>
</g>
</svg>
