<svg width="21" height="19" viewBox="0 0 21 19" fill="none" xmlns="http://www.w3.org/2000/svg">
<path d="M20.9119 1.2074C20.9119 1.11873 20.9119 1.11873 20.9119 1.03006C20.9119 0.941387 20.9119 0.941387 20.9119 0.852717C20.9119 0.764047 20.9119 0.764047 20.9119 0.675377V0.586707C20.9119 0.498037 20.8236 0.498037 20.8236 0.409367L20.7354 0.320697C20.7354 0.320697 20.6471 0.320697 20.6471 0.232027L20.5589 0.143357C20.5589 0.143357 20.4707 0.143357 20.4707 0.0546875C20.3824 0.143357 20.2942 0.0546875 20.2942 0.0546875C20.206 0.0546875 20.206 0.0546875 20.1177 0.0546875H20.0295L0.794208 1.82809C0.441267 1.82809 0.176561 2.0941 0.0883261 2.44878C9.07741e-05 2.80346 0.0883261 3.15814 0.264797 3.33548L6.08833 9.27636L8.29421 17.434C8.38244 17.7887 8.64715 18.0547 9.00009 18.0547C9.08833 18.0547 9.08833 18.0547 9.17656 18.0547C9.44127 18.0547 9.70597 17.8773 9.88244 17.7L20.8236 1.47341V1.38474C20.9119 1.29607 20.9119 1.29607 20.9119 1.2074ZM16.2354 2.18277L6.97068 7.6803L2.82362 3.42415L16.2354 2.18277ZM9.44127 15.0399L7.85303 9.18769L17.1177 3.69016L9.44127 15.0399Z" fill="#C81FB7"/>
</svg>
