<svg width="22" height="21" viewBox="0 0 22 21" fill="none" xmlns="http://www.w3.org/2000/svg">
<path d="M17.9313 12.4396C17.4429 11.9315 16.8521 11.6634 16.2219 11.6634C15.5983 11.6634 15.0031 11.9272 14.5038 12.4287L13.2632 13.6693C13.2326 13.654 13.2021 13.6388 13.1738 13.6235L13.1105 13.593C12.9775 13.5254 12.8249 13.4491 12.6984 13.3706C11.4251 12.5617 10.263 11.502 9.14226 10.1284C8.66258 9.52441 8.3268 9.01202 8.08042 8.50182C8.39221 8.20747 8.6822 7.91312 8.95475 7.63403C9.0158 7.57298 9.07685 7.50975 9.14008 7.44652C9.20113 7.38329 9.26436 7.32006 9.32759 7.25682C9.84652 6.7379 10.1212 6.13611 10.1191 5.51689C10.1191 4.89984 9.84434 4.30024 9.32759 3.78567L8.12184 2.57993C8.05207 2.51015 7.9823 2.44038 7.91471 2.37061C7.84712 2.30084 7.77735 2.23107 7.70975 2.16348L7.61382 2.06536C7.37616 1.82334 7.12978 1.57259 6.88121 1.34366C6.39717 0.861793 5.81065 0.606689 5.18924 0.606689C4.57002 0.606689 3.97914 0.861793 3.47547 1.34366C3.47329 1.34584 3.47111 1.34584 3.47111 1.34802L1.96011 2.85683C1.34307 3.47388 0.992026 4.22611 0.915713 5.09172V5.0939C0.835039 6.11867 1.02037 7.20014 1.50005 8.49746C2.22612 10.4598 3.3163 12.2782 4.9276 14.2188C6.89429 16.5627 9.25564 18.4116 11.944 19.7133H11.9462C12.9819 20.2082 14.373 20.7882 15.9428 20.8907C15.945 20.8907 15.9472 20.8907 15.9494 20.8907H15.9603C16.0497 20.8951 16.1434 20.8994 16.2416 20.8994C17.3426 20.8994 18.2715 20.5004 18.9997 19.7133L19.0106 19.7024C19.0193 19.6937 19.0259 19.6871 19.0324 19.6784C19.2505 19.4168 19.5012 19.1747 19.7825 18.9044C19.9765 18.719 20.1749 18.5294 20.3668 18.3244C20.8618 17.8076 21.1234 17.2059 21.1212 16.5845C21.119 15.9609 20.853 15.3656 20.3516 14.8641L17.9313 12.4396ZM17.6915 18.5163C17.3034 18.9305 16.8586 19.1159 16.2525 19.1159C16.1958 19.1159 16.1325 19.1115 16.0671 19.1071C14.8112 19.0265 13.6229 18.5294 12.729 18.1042C10.2608 16.9159 8.09786 15.2239 6.29905 13.0741C4.8273 11.3014 3.83523 9.64869 3.17894 7.87823C2.78647 6.82511 2.63821 6.00965 2.69926 5.23998C2.7385 4.79082 2.90639 4.43324 3.22691 4.11709L4.727 2.61699C4.88399 2.46655 5.04534 2.38587 5.19578 2.38587C5.33751 2.38587 5.48795 2.46437 5.64712 2.61917C5.6493 2.62135 5.65148 2.62353 5.65366 2.62571C5.91313 2.86992 6.16605 3.1272 6.43424 3.39757L6.44296 3.40629C6.5716 3.53929 6.71987 3.69192 6.87031 3.838L8.07388 5.04157C8.42492 5.39261 8.42492 5.63899 8.07388 5.99003C7.94741 6.11649 7.81877 6.24513 7.69231 6.37595L7.60292 6.46753C7.26496 6.80985 6.94662 7.13254 6.59994 7.43998C6.59558 7.44434 6.58904 7.4487 6.58468 7.45524L6.56288 7.47704C6.1944 7.84553 6.0941 8.28596 6.26635 8.78309C6.27071 8.79617 6.27507 8.80707 6.27943 8.81797C6.28161 8.82451 6.28379 8.83105 6.28815 8.83759C6.61085 9.61599 7.06436 10.3551 7.76208 11.2382C7.76208 11.2404 7.76426 11.2404 7.76426 11.2425C9.00272 12.7666 10.3088 13.9571 11.7587 14.8772C11.9484 14.9971 12.1446 15.0974 12.3278 15.189C12.463 15.2566 12.6156 15.3351 12.7421 15.4114C12.7508 15.418 12.7595 15.4223 12.7682 15.4267L12.7748 15.431C12.7878 15.4376 12.8009 15.4463 12.8162 15.4528C13.0059 15.5488 13.1934 15.5946 13.3874 15.5946C13.7189 15.5946 14.0241 15.4572 14.2705 15.1977L15.7793 13.6889C15.8883 13.5799 16.0584 13.4491 16.2372 13.4491C16.4029 13.4491 16.5642 13.5777 16.6689 13.6867C16.6711 13.6889 16.6711 13.6889 16.6733 13.6911L19.1087 16.1266C19.3486 16.3664 19.5121 16.6499 19.0891 17.0947L19.0869 17.0968C18.9539 17.2407 18.8122 17.3781 18.6618 17.5242C18.6291 17.5547 18.5964 17.5874 18.5636 17.6201C18.2584 17.9058 17.9662 18.1892 17.6915 18.5163Z" fill="#FFACAC"/>
</svg>
