<svg width="23" height="22" viewBox="0 0 23 22" fill="none" xmlns="http://www.w3.org/2000/svg">
<path fill-rule="evenodd" clip-rule="evenodd" d="M22.1728 11C22.1728 17.0751 17.248 22 11.1728 22C5.09771 22 0.172852 17.0751 0.172852 11C0.172852 4.92489 5.09771 3.05176e-05 11.1728 3.05176e-05C17.248 3.05176e-05 22.1728 4.92489 22.1728 11ZM12.4495 8.13935C12.1169 8.13469 11.9322 8.28269 11.9322 8.62469C11.9304 8.82971 11.931 9.03416 11.9316 9.25466C11.9319 9.37115 11.9322 9.49212 11.9322 9.62002H13.4868C13.4363 10.1455 13.3891 10.6265 13.3408 11.1185C13.3318 11.2107 13.3227 11.3033 13.3135 11.3967H11.9369V16.3127L9.86419 16.3127V11.4173H8.90552V9.64735H9.85019V8.64002C9.86219 7.17802 10.6155 6.42936 12.0822 6.42469H13.4242V8.13935C13.3145 8.13935 13.2064 8.13988 13.0986 8.1404C12.8841 8.14143 12.6709 8.14246 12.4495 8.13935Z" fill="#dcdddd"/>
</svg>
