<svg width="22" height="22" viewBox="0 0 22 22" fill="none" xmlns="http://www.w3.org/2000/svg">
<path fill-rule="evenodd" clip-rule="evenodd" d="M22 11C22 17.0751 17.0751 22 11 22C4.92486 22 0 17.0751 0 11C0 4.92486 4.92486 0 11 0C17.0751 0 22 4.92486 22 11ZM13.3209 8.51603V8.31567C13.3425 8.34394 13.3606 8.36746 13.3766 8.38825C13.402 8.42125 13.4221 8.44737 13.4423 8.47468C14.1802 9.3938 15.1509 9.83587 16.3512 9.82315C16.489 9.81997 16.5349 9.78181 16.5316 9.63869C16.5218 9.05987 16.5185 8.48104 16.5316 7.9054C16.5349 7.74956 16.4791 7.71776 16.3381 7.69868C14.7803 7.49832 13.58 6.35021 13.3635 4.84909C13.3504 4.74414 13.3111 4.7346 13.2225 4.7346C13.0753 4.7346 12.9283 4.73512 12.7815 4.73564C12.4148 4.73693 12.0488 4.73823 11.6811 4.73142C11.5368 4.72823 11.4942 4.76004 11.4942 4.90951C11.4942 6.04552 11.4921 7.18152 11.49 8.31752C11.4868 10.0216 11.4837 11.7256 11.4876 13.4297C11.4876 14.67 10.2906 15.5891 9.04107 15.3729C7.91945 15.1789 7.22418 14.177 7.42424 13.0798C7.59477 12.1416 8.56225 11.426 9.52972 11.5278C9.63467 11.5374 9.63467 11.4992 9.63467 11.426C9.63467 11.2876 9.63446 11.1493 9.63426 11.0111C9.63364 10.5973 9.63303 10.1848 9.63795 9.77227C9.63795 9.68004 9.60515 9.65777 9.5166 9.65777C9.30015 9.65777 9.08042 9.66095 8.86397 9.68958C6.70273 9.96945 5.18757 11.9285 5.51552 14.0212C5.89923 16.4764 8.54257 17.9235 10.9039 16.9694C12.3534 16.3842 13.3176 15.0008 13.3209 13.4742C13.3231 12.3718 13.3224 11.2708 13.3216 10.1693C13.3213 9.61843 13.3209 9.06741 13.3209 8.51603Z" fill="#dcdddd"/>
</svg>
