<svg width="23" height="22" viewBox="0 0 23 22" fill="none" xmlns="http://www.w3.org/2000/svg">
<path fill-rule="evenodd" clip-rule="evenodd" d="M22.0863 11C22.0863 17.0751 17.1615 22 11.0864 22C5.01123 22 0.0863647 17.0751 0.0863647 11C0.0863647 4.92486 5.01123 0 11.0864 0C17.1615 0 22.0863 4.92486 22.0863 11ZM7.78552 9.10213C7.78672 9.12328 7.78793 9.14453 7.77919 9.16491C7.76035 9.17299 7.74267 9.16836 7.72564 9.16392C7.72281 9.16318 7.72001 9.16244 7.71721 9.16177C7.58149 9.12882 7.44263 9.12176 7.30456 9.13588C7.01272 9.16491 6.76716 9.28573 6.58515 9.51951C6.30587 9.87882 6.30194 10.3848 6.57182 10.763C6.69106 10.9293 6.84326 11.0603 7.01115 11.1733C7.09616 11.2302 7.18192 11.286 7.26773 11.3417C7.33317 11.3842 7.39864 11.4267 7.46382 11.4698C7.61915 11.5726 7.63327 11.6244 7.54933 11.7946C7.41517 12.0668 7.23866 12.3085 7.02684 12.525C6.72088 12.8388 6.36392 13.0828 5.97245 13.2774C5.87203 13.3276 5.77161 13.3778 5.67982 13.4437C5.32679 13.6955 5.25383 14.1246 5.50566 14.4777C5.61078 14.6252 5.74729 14.7366 5.90498 14.8244C6.12778 14.9484 6.36157 15.0464 6.6079 15.1092C6.75539 15.1469 6.8464 15.2214 6.89896 15.3697C6.99624 15.6442 7.19786 15.8168 7.47715 15.8992C7.61915 15.9408 7.76507 15.9526 7.91099 15.9588C7.93282 15.9597 7.95465 15.9606 7.97648 15.9614C8.12958 15.9673 8.28262 15.9732 8.43505 15.9918C8.71748 16.0263 8.9897 16.0953 9.23291 16.2515C9.29247 16.2898 9.35317 16.326 9.41398 16.3624C9.45409 16.3864 9.49425 16.4104 9.53416 16.435C10.0221 16.7355 10.5501 16.9065 11.1252 16.9285C11.7316 16.9513 12.3035 16.8281 12.837 16.5339C12.9769 16.4568 13.1131 16.3738 13.2495 16.2907C13.2783 16.2732 13.3071 16.2556 13.3359 16.2381C13.4944 16.1416 13.6631 16.0765 13.8435 16.0365C14.0797 15.9839 14.3197 15.969 14.5598 15.9612C14.6853 15.9573 14.81 15.9502 14.934 15.9282C15.28 15.8678 15.5334 15.6874 15.6534 15.3501C15.6989 15.2237 15.7758 15.1476 15.9052 15.121C15.9178 15.1186 15.9303 15.1147 15.9429 15.1108C16.1979 15.0378 16.4418 14.9397 16.6717 14.8072C16.8325 14.7146 16.9683 14.5946 17.0687 14.4361C17.2797 14.1027 17.2075 13.7033 16.8937 13.4649C16.8145 13.4044 16.7282 13.3542 16.6388 13.3111C16.3822 13.1863 16.1367 13.042 15.9092 12.8694C15.524 12.5768 15.2086 12.2269 14.9936 11.7907C14.9772 11.7585 14.963 11.7248 14.9528 11.6895C14.9332 11.6205 14.952 11.5655 15.0062 11.5216C15.0242 11.5067 15.0438 11.4934 15.0634 11.4808C15.1443 11.4275 15.2251 11.3745 15.3059 11.3216C15.3867 11.2686 15.4675 11.2156 15.5483 11.1623C15.6573 11.0901 15.7585 11.007 15.8488 10.912C16.0739 10.6751 16.1963 10.3974 16.1673 10.0663C16.1382 9.73683 15.9907 9.47323 15.7091 9.29279C15.4738 9.14216 15.2141 9.10843 14.9411 9.14059C14.9174 9.14344 14.894 9.14857 14.8708 9.15369C14.8363 9.16128 14.802 9.16883 14.7669 9.16883C14.7658 9.16581 14.7647 9.16326 14.7637 9.16103C14.7619 9.1569 14.7606 9.15385 14.7606 9.15079V9.08803C14.763 8.7248 14.7512 8.36157 14.6932 8.00147C14.6359 7.6453 14.5339 7.30325 14.355 6.98866C13.9275 6.23631 13.292 5.73578 12.4753 5.46434C11.9442 5.28704 11.3982 5.24232 10.842 5.30038C10.3658 5.35059 9.91308 5.47925 9.49415 5.71146C8.50801 6.25984 7.94237 7.09222 7.82156 8.21878C7.79096 8.50513 7.78311 8.79227 7.78468 9.08018C7.78468 9.08746 7.7851 9.09479 7.78552 9.10213Z" fill="#dcdddd"/>
</svg>
