<svg width="23" height="22" viewBox="0 0 23 22" fill="none" xmlns="http://www.w3.org/2000/svg">
<path fill-rule="evenodd" clip-rule="evenodd" d="M22.3457 11C22.3457 17.0751 17.4209 22 11.3458 22C5.27063 22 0.345764 17.0751 0.345764 11C0.345764 4.92489 5.27063 3.05176e-05 11.3458 3.05176e-05C17.4209 3.05176e-05 22.3457 4.92489 22.3457 11ZM15.7732 7.33615C16.0053 7.50958 16.1733 7.75495 16.2512 8.03396C16.3422 8.35147 16.4048 8.67644 16.4382 9.00504C16.4747 9.25879 16.4934 9.51474 16.512 9.76969C16.519 9.86504 16.5259 9.96026 16.5338 10.0552L16.5338 11.7956C16.5281 11.8512 16.5229 11.9074 16.5177 11.9638C16.5078 12.0712 16.4978 12.1792 16.4843 12.2852C16.4434 12.7719 16.3726 13.2556 16.2725 13.7336C16.207 14.0386 16.0356 14.3105 15.7887 14.5013C15.5419 14.692 15.2355 14.7891 14.9238 14.7755C14.3807 14.8009 13.8378 14.8228 13.2949 14.8446C13.0452 14.8547 12.7955 14.8648 12.5457 14.8752C12.4851 14.8782 12.427 14.8878 12.3677 14.8975C12.3457 14.9012 12.3234 14.9048 12.3008 14.9082H10.3917C10.2911 14.9021 10.1904 14.8951 10.0895 14.888C9.98457 14.8806 9.87931 14.8732 9.77343 14.8669C9.50243 14.8519 9.23103 14.8395 8.9595 14.8272C8.41177 14.8023 7.86351 14.7774 7.31683 14.73C7.05464 14.7197 6.80279 14.625 6.59863 14.4602C6.39448 14.2954 6.2489 14.0691 6.18351 13.815C6.10205 13.5095 6.04115 13.1989 6.00121 12.8852C5.96893 12.6609 5.95116 12.4348 5.93345 12.2095C5.92592 12.1136 5.9184 12.0178 5.90977 11.9224V9.92774C5.91522 9.87827 5.92022 9.82886 5.92522 9.7795C5.93537 9.67934 5.94549 9.57935 5.95932 9.47937C6.00746 9.00772 6.08092 8.53901 6.17938 8.07525C6.24762 7.78557 6.41333 7.52814 6.64877 7.34609C6.8842 7.16403 7.17505 7.06842 7.47258 7.07527C7.99734 7.04984 8.52211 7.028 9.04687 7.00616C9.28906 6.99608 9.53125 6.986 9.77343 6.97556C9.84455 6.97247 9.916 6.96243 9.98753 6.95238C10.0115 6.94901 10.0356 6.94564 10.0596 6.94252H12.3834C12.4075 6.94564 12.4316 6.94901 12.4557 6.95239C12.5276 6.96243 12.5993 6.97247 12.6678 6.97556C12.91 6.986 13.1522 6.99608 13.3944 7.00616C13.9191 7.028 14.4439 7.04984 14.9686 7.07527C15.2583 7.07098 15.5412 7.16271 15.7732 7.33615ZM9.90205 8.92185V12.9265C10.553 12.537 11.1938 12.153 11.8398 11.7658C12.3014 11.489 12.7657 11.2107 13.2383 10.9277C12.7852 10.6549 12.3387 10.387 11.8949 10.1207C11.2291 9.72128 10.5693 9.32539 9.90205 8.92185Z" fill="#dcdddd"/>
</svg>
