<svg width="23" height="22" viewBox="0 0 23 22" fill="none" xmlns="http://www.w3.org/2000/svg">
<path fill-rule="evenodd" clip-rule="evenodd" d="M22.2593 11C22.2593 17.0751 17.3344 22 11.2593 22C5.18414 22 0.259277 17.0751 0.259277 11C0.259277 4.92489 5.18414 3.05176e-05 11.2593 3.05176e-05C17.3344 3.05176e-05 22.2593 4.92489 22.2593 11ZM7.55933 13.4803C7.96488 13.7841 8.45536 13.9534 8.96196 13.9643C8.65395 14.2101 8.31562 14.4153 7.9553 14.5749C7.16143 14.9242 6.2931 15.0704 5.42863 15.0003C5.43436 15.0165 5.4454 15.0304 5.45997 15.0396C6.29191 15.5533 7.22367 15.8839 8.1933 16.0096C9.05587 16.1239 9.93202 16.081 10.7793 15.8829C12.1479 15.5801 13.3798 14.8379 14.2873 13.7696C15.4681 12.4246 16.0964 10.6827 16.046 8.89361C16.0433 8.86354 16.049 8.8333 16.0624 8.80625C16.0758 8.77919 16.0964 8.75637 16.122 8.74028C16.3161 8.59844 16.4977 8.44007 16.6646 8.26695C16.768 8.15895 16.872 8.04628 16.968 7.93028C17.0354 7.84882 17.0982 7.76342 17.161 7.678C17.1876 7.64177 17.2143 7.60555 17.2413 7.56962C16.816 7.73837 16.3704 7.85044 15.916 7.90295C16.1494 7.74418 16.3573 7.55087 16.5326 7.32962C16.7119 7.1051 16.8453 6.84756 16.9253 6.57162C16.6994 6.70716 16.4623 6.82313 16.2166 6.91828C15.9746 7.011 15.7262 7.08586 15.4733 7.14228C15.4449 7.15147 15.4144 7.15201 15.3856 7.14382C15.3569 7.13562 15.3313 7.11908 15.312 7.09628C14.9589 6.73754 14.4985 6.50352 14.0006 6.42962C13.5725 6.34992 13.1307 6.38997 12.724 6.54537C12.3172 6.70076 11.9612 6.96546 11.6953 7.31028C11.4684 7.58431 11.3066 7.90627 11.2222 8.2519C11.1377 8.59754 11.1329 8.95783 11.208 9.30561C11.2173 9.36628 11.222 9.39695 11.1413 9.39028C10.7896 9.36559 10.4401 9.31636 10.0953 9.24295C8.59119 8.9172 7.23844 8.09974 6.25063 6.91962C6.24569 6.91388 6.24121 6.90735 6.23667 6.90072C6.2222 6.87963 6.2071 6.85762 6.17463 6.85762C5.86918 7.38687 5.77624 8.01242 5.91463 8.60761C6.0507 9.21505 6.41397 9.74742 6.92996 10.0956C6.54848 10.0822 6.17524 9.98088 5.8393 9.79961C5.82889 10.0282 5.85591 10.257 5.9193 10.4769C5.97732 10.69 6.06507 10.8937 6.17996 11.0823C6.2958 11.2752 6.43757 11.4513 6.6013 11.6056C6.76244 11.7568 6.9429 11.8859 7.13796 11.9896C7.33932 12.0933 7.55303 12.1711 7.77396 12.2209C7.4238 12.3138 7.05783 12.3306 6.70063 12.2703C6.8535 12.7534 7.15378 13.1765 7.55933 13.4803Z" fill="#dcdddd" />
</svg>
