<svg width="23" height="22" viewBox="0 0 23 22" fill="none" xmlns="http://www.w3.org/2000/svg">
<path fill-rule="evenodd" clip-rule="evenodd" d="M22.4321 11C22.4321 17.0751 17.5072 22 11.4321 22C5.35699 22 0.432129 17.0751 0.432129 11C0.432129 4.92489 5.35699 3.05176e-05 11.4321 3.05176e-05C17.5072 3.05176e-05 22.4321 4.92489 22.4321 11ZM16.7809 10.4677V10.4684V10.469C16.7802 10.6468 16.7796 10.8244 16.7796 11.0015C16.7852 11.0037 16.7903 11.0069 16.7949 11.0108L16.7902 11.395L16.7902 11.3957C16.7842 11.9051 16.7781 12.4151 16.7669 12.9242C16.7687 13.344 16.719 13.7624 16.6189 14.1702C16.5218 14.5703 16.3358 14.9435 16.0748 15.2619C15.8137 15.5803 15.4843 15.8358 15.1109 16.0095C14.7934 16.1593 14.4532 16.255 14.1042 16.2928C13.5382 16.348 12.9695 16.3703 12.4009 16.3595C11.5516 16.3615 10.7029 16.3615 9.85424 16.3495C9.48578 16.3463 9.11774 16.324 8.75158 16.2828C8.10568 16.2246 7.49741 15.9535 7.02224 15.5122C6.58484 15.0888 6.29266 14.5378 6.18758 13.9382C6.12839 13.6051 6.09695 13.2677 6.09358 12.9295C6.05958 11.7368 6.06558 10.5442 6.08558 9.35216C6.09425 9.00883 6.11225 8.66483 6.15225 8.3235C6.20981 7.68651 6.4744 7.0859 6.90558 6.6135C7.33032 6.16491 7.88837 5.8652 8.49691 5.75883C8.82899 5.69881 9.16548 5.66647 9.50291 5.66217C10.7029 5.62817 11.9029 5.63417 13.1029 5.65417C13.4394 5.6594 13.7754 5.68165 14.1096 5.72083C14.5227 5.75495 14.9233 5.87882 15.2836 6.08377C15.6439 6.28873 15.9551 6.56985 16.1956 6.9075C16.444 7.27116 16.6097 7.68487 16.6809 8.1195C16.7507 8.54117 16.7837 8.96811 16.7796 9.3955C16.7836 9.75241 16.7822 10.1102 16.7809 10.4671V10.4672V10.4677ZM15.7389 13.6875C15.7888 13.3724 15.8128 13.0538 15.8109 12.7348L15.8142 12.7335C15.8309 11.4948 15.8389 10.2548 15.7989 9.01216C15.7956 8.72489 15.7641 8.43863 15.7049 8.1575C15.6164 7.72426 15.3762 7.33681 15.0276 7.06483C14.7591 6.86957 14.4473 6.74217 14.1189 6.6935C13.8005 6.64357 13.4785 6.61949 13.1562 6.6215C11.9202 6.6035 10.6836 6.5935 9.44758 6.6315C9.15892 6.63393 8.87125 6.66542 8.58891 6.7255C8.15362 6.81564 7.76517 7.05908 7.49424 7.4115C7.3013 7.67938 7.17534 7.9896 7.12691 8.31616C7.07743 8.62746 7.05357 8.9423 7.05558 9.2575C7.03358 10.5042 7.02558 11.7468 7.06358 12.9908C7.0659 13.2782 7.0974 13.5645 7.15758 13.8455C7.24736 14.2839 7.49385 14.6745 7.85091 14.9442C8.11652 15.1347 8.42405 15.2587 8.74758 15.3055C9.08534 15.3591 9.42693 15.3849 9.76891 15.3828C10.1364 15.3868 10.5047 15.3855 10.8734 15.3842H10.8734H10.8734L10.874 15.3842C11.0582 15.3835 11.2426 15.3828 11.4269 15.3828V15.4015L11.4465 15.4012C12.0913 15.3913 12.7374 15.3814 13.3822 15.3695C13.6837 15.3695 13.9843 15.3373 14.2789 15.2735C14.6812 15.1894 15.0443 14.9744 15.3116 14.6622C15.5394 14.3818 15.6871 14.045 15.7389 13.6875ZM11.4349 8.2495C10.8907 8.24884 10.3586 8.40957 9.90572 8.71137C9.45289 9.01317 9.09974 9.44249 8.8909 9.94501C8.68207 10.4475 8.62695 11.0007 8.73252 11.5346C8.83809 12.0684 9.0996 12.559 9.48398 12.9442C9.86836 13.3294 10.3583 13.592 10.892 13.6987C11.4256 13.8054 11.9789 13.7515 12.4819 13.5438C12.9848 13.3361 13.4149 12.9838 13.7177 12.5317C14.0205 12.0795 14.1824 11.5477 14.1829 11.0035C14.182 10.2744 13.8924 9.57532 13.3774 9.05921C12.8625 8.5431 12.164 8.25197 11.4349 8.2495ZM11.4289 12.7868C11.0757 12.786 10.7307 12.6805 10.4375 12.4836C10.1443 12.2867 9.91611 12.0072 9.78177 11.6805C9.64744 11.3539 9.61301 10.9948 9.68283 10.6485C9.75266 10.3023 9.9236 9.98458 10.174 9.73554C10.4245 9.4865 10.7432 9.31734 11.0898 9.24946C11.4364 9.18157 11.7953 9.21801 12.1212 9.35417C12.4471 9.49034 12.7253 9.7201 12.9206 10.0144C13.1158 10.3087 13.2194 10.6543 13.2183 11.0075C13.2163 11.4805 13.0268 11.9335 12.6914 12.2671C12.356 12.6006 11.902 12.7875 11.4289 12.7868ZM13.9329 7.61084C14.0381 7.53978 14.162 7.5015 14.2889 7.50084C14.3734 7.50022 14.4571 7.5163 14.5352 7.54813C14.6134 7.57997 14.6845 7.62695 14.7445 7.68636C14.8045 7.74577 14.8521 7.81644 14.8847 7.89432C14.9173 7.97221 14.9341 8.05575 14.9343 8.14017C14.9348 8.26711 14.8977 8.39137 14.8276 8.49722C14.7575 8.60307 14.6576 8.68577 14.5406 8.73487C14.4235 8.78397 14.2945 8.79725 14.1699 8.77305C14.0453 8.74885 13.9306 8.68825 13.8404 8.5989C13.7503 8.50956 13.6886 8.39549 13.6632 8.2711C13.6379 8.14671 13.6499 8.0176 13.6979 7.90008C13.7459 7.78256 13.8277 7.6819 13.9329 7.61084Z" fill="#dcdddd"/>
</svg>
