<svg width="24" height="18" viewBox="0 0 24 18" fill="none" xmlns="http://www.w3.org/2000/svg">
<path d="M20.971 17.9192H2.69021C1.27905 17.9192 0.131836 16.772 0.131836 15.3609V2.92947C0.131836 1.5183 1.27905 0.371094 2.69021 0.371094H20.971C22.3821 0.371094 23.5293 1.5183 23.5293 2.92947V15.3609C23.5293 16.772 22.3821 17.9192 20.971 17.9192ZM2.69021 1.83344C2.08553 1.83344 1.59418 2.32479 1.59418 2.92947V15.3609C1.59418 15.9648 2.08553 16.4569 2.69021 16.4569H20.971C21.5749 16.4569 22.067 15.9648 22.067 15.3609V2.92947C22.067 2.32479 21.5749 1.83344 20.971 1.83344H2.69021ZM11.8306 11.686C11.3897 11.686 10.9495 11.5259 10.5978 11.2071L3.29562 4.56802C2.99657 4.29676 2.97536 3.83392 3.24663 3.53488C3.51863 3.23656 3.97999 3.21462 4.27978 3.48589L11.582 10.1242C11.7231 10.2543 11.9373 10.2536 12.0792 10.1249L19.3814 3.48589C19.6797 3.21462 20.1433 3.23656 20.4146 3.53488C20.6858 3.83392 20.6639 4.29676 20.3656 4.56802L13.0633 11.2071C12.7117 11.5259 12.2715 11.686 11.8306 11.686ZM3.7877 14.9945C3.60052 14.9945 3.41334 14.9229 3.27076 14.7803C2.98487 14.4944 2.98487 14.0323 3.27076 13.7464L8.38896 8.62822C8.67485 8.34233 9.13695 8.34233 9.42284 8.62822C9.70873 8.91411 9.70873 9.37621 9.42284 9.6621L4.30464 14.7803C4.16206 14.9229 3.97488 14.9945 3.7877 14.9945ZM19.8735 14.9945C19.6863 14.9945 19.4991 14.9229 19.3565 14.7803L14.2383 9.6621C13.9525 9.37621 13.9525 8.91411 14.2383 8.62822C14.5242 8.34233 14.9863 8.34233 15.2722 8.62822L20.3904 13.7464C20.6763 14.0323 20.6763 14.4944 20.3904 14.7803C20.2478 14.9229 20.0607 14.9945 19.8735 14.9945Z" fill="#FFACAC"/>
</svg>
